Coordinates
version=1
nRows=22
nColumns=24
inDegrees=yes

Units are S.I. units (second, meters, Newtons, ...)
Angles are in degrees.

endheader
time	pelvis_tilt	pelvis_list	pelvis_rotation	pelvis_tx	pelvis_ty	pelvis_tz	hip_flexion_r	hip_adduction_r	hip_rotation_r	knee_angle_r	ankle_angle_r	subtalar_angle_r	mtp_angle_r	hip_flexion_l	hip_adduction_l	hip_rotation_l	knee_angle_l	ankle_angle_l	subtalar_angle_l	mtp_angle_l	lumbar_extension	lumbar_bending	lumbar_rotation
      1.15683333	      3.16482746	      6.86954173	     -5.89554785	      0.16532828	      1.02203605	      0.25277597	     13.47041666	     -7.91393936	     -0.56981335	    -65.01346098	      4.29834069	    -18.02373878	     -1.66550850	      3.78978977	     10.66996251	     -0.51812299	     -9.24186143	      1.15033705	    -16.71090282	      5.53530803	     -6.60793731	     -8.12456773	      5.85001321
      1.16100000	      3.11374193	      6.72225085	     -5.88525399	      0.17042979	      1.02266999	      0.25276227	     14.00048130	     -7.66017420	     -0.47654933	    -64.44216511	      4.51885101	    -17.94920621	     -1.67608572	      3.37316137	     10.54899637	     -0.43786931	     -8.99124217	      1.26746152	    -16.70762135	      5.50922518	     -6.60338288	     -7.97764677	      5.74250282
      1.16516667	      3.07808072	      6.57372760	     -5.84935458	      0.17550366	      1.02330051	      0.25272310	     14.48993992	     -7.41564957	     -0.41590219	    -63.79949452	      4.72595304	    -17.79791335	     -1.68603809	      2.93833273	     10.43023802	     -0.30695255	     -8.73861908	      1.37602305	    -16.72683393	      5.47015923	     -6.63121707	     -7.83720838	      5.54953883
      1.16933333	      3.05643215	      6.42851286	     -5.80826244	      0.18059643	      1.02393143	      0.25268176	     14.94254599	     -7.17976687	     -0.36743929	    -63.09039931	      4.91904732	    -17.63806343	     -1.69096076	      2.47820578	     10.31569501	     -0.17485454	     -8.46523808	      1.48054901	    -16.74627411	      5.42830632	     -6.66923869	     -7.69696609	      5.33738394
      1.17350000	      3.04050846	      6.32030650	     -5.75477295	      0.18569155	      1.02449427	      0.25261901	     15.38482211	     -7.00031454	     -0.34227913	    -62.34887993	      5.11360463	    -17.43325092	     -1.69324042	      1.99891856	     10.24470772	      0.00931791	     -8.15666244	      1.58023148	    -16.81418096	      5.34812348	     -6.71388161	     -7.59194482	      5.00597721
      1.17766667	      2.99464962	      6.17522176	     -5.71027334	      0.19079298	      1.02501808	      0.25261180	     15.82883382	     -6.75785877	     -0.29455407	    -61.52172648	      5.27964620	    -17.28641952	     -1.68830282	      1.56705942	     10.11925176	      0.09835571	     -7.88511023	      1.66688820	    -16.79808254	      5.31395869	     -6.72191934	     -7.44720581	      4.87312336
      1.18183333	      2.99920593	      6.05737341	     -5.63709476	      0.19589033	      1.02555609	      0.25254626	     16.20082829	     -6.57628014	     -0.29933545	    -60.65039976	      5.44157548	    -17.07860052	     -1.67315011	      1.06186224	     10.03447592	      0.28043521	     -7.57193925	      1.77144547	    -16.84002024	      5.22978008	     -6.79547160	     -7.33727422	      4.53029121
      1.18600000	      2.97281353	      5.92744740	     -5.56745376	      0.20099197	      1.02602299	      0.25251442	     16.58583649	     -6.37048647	     -0.29653715	    -59.71754956	      5.57914078	    -16.90183841	     -1.65180522	      0.59641612	      9.92723433	      0.41901132	     -7.27184572	      1.86150520	    -16.85771998	      5.14571761	     -6.82935850	     -7.21026625	      4.27790525
      1.19016667	      2.93653184	      5.81041150	     -5.49118755	      0.20610321	      1.02643237	      0.25248521	     16.96603430	     -6.18174836	     -0.30081124	    -58.73779367	      5.70418981	    -16.73174569	     -1.62528158	      0.14183754	      9.82977954	      0.55359735	     -6.97003861	      1.95292346	    -16.85800187	      5.06335632	     -6.84891617	     -7.09757761	      4.02327103
      1.19433333	      2.88984073	      5.68599444	     -5.42005141	      0.21120818	      1.02679928	      0.25248717	     17.33755897	     -5.97940405	     -0.29995307	    -57.70168247	      5.81763554	    -16.57105588	     -1.60958401	     -0.29463758	      9.71732232	      0.64215021	     -6.67951296	      2.02775230	    -16.81558255	      5.02632574	     -6.85675453	     -6.97564833	      3.86922652
      1.19850000	      2.88750710	      5.58138665	     -5.32382571	      0.21631219	      1.02716721	      0.25243888	     17.64282915	     -5.82503242	     -0.34458696	    -56.62533805	      5.90339533	    -16.42567663	     -1.57388012	     -0.79613651	      9.63396611	      0.81494191	     -6.35358072	      2.13433959	    -16.82994446	      4.94019174	     -6.92488412	     -6.88080244	      3.49017500
      1.20266667	      2.86470759	      5.47116504	     -5.23554395	      0.22141437	      1.02747800	      0.25242459	     17.95212332	     -5.65621747	     -0.37787444	    -55.49724711	      5.97452157	    -16.29621767	     -1.53571707	     -1.26831582	      9.53756329	      0.94783384	     -6.03982267	      2.21787708	    -16.81645384	      4.85524292	     -6.96639006	     -6.77884281	      3.22032212
      1.20683333	      2.79415697	      5.36453269	     -5.14466682	      0.22654524	      1.02767637	      0.25240913	     18.29542676	     -5.49141607	     -0.41804369	    -54.32623510	      6.03826929	    -16.15587678	     -1.51740024	     -1.67774529	      9.43612138	      1.03066905	     -5.74853403	      2.29583165	    -16.76752130	      4.81924917	     -6.93593826	     -6.66908352	      3.06301300
      1.21100000	      2.75801188	      5.26697558	     -5.04420134	      0.23166409	      1.02787304	      0.25239471	     18.58313362	     -5.34910832	     -0.48092175	    -53.11376779	      6.07208334	    -16.04485241	     -1.49585873	     -2.12905082	      9.34574075	      1.14537677	     -5.44664755	      2.39151455	    -16.72761542	      4.77709514	     -6.95524249	     -6.57306555	      2.81303374
      1.21516667	      2.75368150	      5.18229758	     -4.94287423	      0.23677503	      1.02805687	      0.25237360	     18.82489768	     -5.23140687	     -0.55690798	    -51.87021556	      6.07063444	    -15.99133721	     -1.45795405	     -2.62796035	      9.27276600	      1.29474446	     -5.11364918	      2.50518316	    -16.71558359	      4.70300064	     -7.01522333	     -6.49913222	      2.42427696
      1.21933333	      2.70725944	      5.08816131	     -4.83956879	      0.24190290	      1.02817461	      0.25237204	     19.08536946	     -5.09794164	     -0.63294109	    -50.57026601	      6.05888832	    -15.92299713	     -1.41893990	     -3.07021918	      9.18080629	      1.41276632	     -4.80519274	      2.59471045	    -16.68029260	      4.63007773	     -7.02437566	     -6.40993312	      2.14711688
      1.22350000	      2.65809267	      5.01357528	     -4.74401047	      0.24701684	      1.02819691	      0.25238052	     19.34596909	     -4.98893668	     -0.70769007	    -49.25559241	      6.04213963	    -15.85502496	     -1.37750973	     -3.50493568	      9.10854651	      1.51980621	     -4.49939468	      2.68862856	    -16.63466530	      4.55620934	     -7.02836296	     -6.34272265	      1.87570716
      1.22766667	      2.60603681	      4.92622971	     -4.64167298	      0.25216149	      1.02822548	      0.25237684	     19.57716771	     -4.87519263	     -0.80703374	    -47.88053221	      6.01242759	    -15.76135497	     -1.35476292	     -3.92956782	      9.01937313	      1.59400563	     -4.21193357	      2.76785558	    -16.56946102	      4.51676494	     -7.01812637	     -6.25088376	      1.70037705
      1.23183333	      2.53659507	      4.85643460	     -4.54514945	      0.25730615	      1.02814846	      0.25239161	     19.82152554	     -4.78038291	     -0.90478091	    -46.48938877	      5.95687649	    -15.69588561	     -1.33378469	     -4.33642216	      8.94655081	      1.67949465	     -3.91955133	      2.86956073	    -16.50532497	      4.48115530	     -6.98999239	     -6.17976642	      1.48404447
      1.23600000	      2.51617575	      4.78920092	     -4.45046530	      0.26243672	      1.02809854	      0.25242536	     19.99546166	     -4.69460545	     -1.01177623	    -45.06369170	      5.85432396	    -15.70399111	     -1.29374235	     -4.80581738	      8.87830752	      1.79311467	     -3.60699929	      2.99957177	    -16.44936944	      4.41771503	     -7.03292654	     -6.12703067	      1.12970686
      1.24016667	      2.42961622	      4.73236244	     -4.35830408	      0.26760194	      1.02791857	      0.25245066	     20.22599804	     -4.62204527	     -1.12989663	    -43.61072383	      5.78898837	    -15.59270463	     -1.26875522	     -5.18311654	      8.81572334	      1.85217315	     -3.33477841	      3.08220980	    -16.38182609	      4.38159544	     -6.97148148	     -6.06352372	      0.96209155
      1.24433333	      2.40250304	      4.67072788	     -4.26741122	      0.27274207	      1.02778870	      0.25250243	     20.37099346	     -4.54796355	     -1.25423918	    -42.11835556	      5.66157150	    -15.57390015	     -1.22391590	     -5.63800534	      8.74953891	      1.95304024	     -3.03589007	      3.21385365	    -16.30910468	      4.32093827	     -7.00916760	     -6.01626314	      0.65628214
